<?xml version="1.0" encoding="UTF-8" standalone="no"?>
<!-- Uploaded to: SVG Repo, www.svgrepo.com, Generator: SVG Repo Mixer Tools -->

<svg
   version="1.1"
   width="378"
   height="302"
   viewBox="0 0 45.36 36.24"
   enable-background="new 0 0 96 96"
   xml:space="preserve"
   id="svg4"
   sodipodi:docname="dryer-icon.svg"
   inkscape:version="1.4.4 (dcaf3e7, 2026-05-05)"
   xmlns:inkscape="http://www.inkscape.org/namespaces/inkscape"
   xmlns:sodipodi="http://sodipodi.sourceforge.net/DTD/sodipodi-0.dtd"
   xmlns="http://www.w3.org/2000/svg"
   xmlns:svg="http://www.w3.org/2000/svg"><defs
   id="defs4" /><sodipodi:namedview
   id="namedview4"
   pagecolor="#505050"
   bordercolor="#ffffff"
   borderopacity="1"
   inkscape:showpageshadow="0"
   inkscape:pageopacity="0"
   inkscape:pagecheckerboard="1"
   inkscape:deskcolor="#505050"
   inkscape:zoom="1.03625"
   inkscape:cx="238.84198"
   inkscape:cy="148.13028"
   inkscape:window-width="1920"
   inkscape:window-height="1009"
   inkscape:window-x="-8"
   inkscape:window-y="-4"
   inkscape:window-maximized="1"
   inkscape:current-layer="svg4" />

<g
   id="g4"
   transform="matrix(0.74883288,0,0,0.74883288,-13.298949,-17.921087)"
   style="stroke-width:1.33541">
		<path
   d="M 54,46 23.999,45.999 c -1.104,0 -2,0.896 -2,2 0,1.104 0.896,2 2,2 L 54,50 c 3.859,0 7,3.141 7,7 0,3.859 -3.141,7 -7,7 -1.105,0 -2,0.896 -2,2 0,1.104 0.895,2 2,2 6.065,0 11,-4.935 11,-11 0,-6.065 -4.935,-11 -11,-11 z"
   id="path1"
   style="stroke-width:1.33541" />
		<path
   d="M 47.999,52 H 24 c -1.104,0 -2,0.896 -2,2 0,1.104 0.896,2 2,2 h 23.999 c 0.552,0 1,0.448 1,1 0,0.552 -0.448,1 -1,1 -1.105,0 -2,0.896 -2,2 0,1.104 0.895,2 2,2 2.757,0 5,-2.243 5,-5 0,-2.757 -2.243,-5 -5,-5 z"
   id="path2"
   style="stroke-width:1.33541" />
		<path
   d="m 69,38 c -1.104,0 -2,0.896 -2,2 0,1.104 0.896,2 2,2 0.552,0 1,0.448 1,1 0,0.552 -0.448,1 -1,1 h -4 c -1.105,0 -2,0.896 -2,2 0,1.104 0.895,2 2,2 h 4 c 2.757,0 5,-2.243 5,-5 0,-2.757 -2.243,-5 -5,-5 z"
   id="path3"
   style="stroke-width:1.33541" />
		<path
   d="M 23.999,43.999 57,44 c 4.411,0 8,-3.589 8,-8 0,-4.411 -3.589,-8 -8,-8 -4.411,0 -8,3.589 -8,8 0,1.104 0.895,2 2,2 1.104,0 2,-0.896 2,-2 0,-2.206 1.794,-4 4,-4 2.206,0 4,1.794 4,4 0,2.206 -1.794,4 -4,4 L 23.999,39.999 c -1.104,0 -2,0.896 -2,2 0,1.104 0.896,2 2,2 z"
   id="path4"
   style="stroke-width:1.33541" />
	</g><rect
   style="fill:#000000;fill-opacity:0;fill-rule:evenodd;stroke:#000000;stroke-width:1.20228;stroke-linecap:square;stroke-miterlimit:2;stroke-dasharray:none;stroke-opacity:1;paint-order:stroke fill markers"
   id="rect3-3"
   width="43.759491"
   height="34.475021"
   x="0.76490903"
   y="0.78538036" />
</svg>
