<?xml version="1.0" encoding="UTF-8" standalone="no"?>
<!-- Created with Inkscape (http://www.inkscape.org/) -->

<svg
   width="120"
   height="155"
   viewBox="0 0 31.749999 41.010416"
   version="1.1"
   id="svg5"
   inkscape:version="1.1.1 (3bf5ae0d25, 2021-09-20)"
   sodipodi:docname="my_elevator_150.svg"
   xmlns:inkscape="http://www.inkscape.org/namespaces/inkscape"
   xmlns:sodipodi="http://sodipodi.sourceforge.net/DTD/sodipodi-0.dtd"
   xmlns="http://www.w3.org/2000/svg"
   xmlns:svg="http://www.w3.org/2000/svg">
  <sodipodi:namedview
     id="namedview7"
     pagecolor="#ffffff"
     bordercolor="#666666"
     borderopacity="1.0"
     inkscape:pageshadow="2"
     inkscape:pageopacity="0.0"
     inkscape:pagecheckerboard="0"
     inkscape:document-units="mm"
     showgrid="true"
     units="px"
     width="80px"
     inkscape:zoom="2.1971895"
     inkscape:cx="-85.108726"
     inkscape:cy="91.708066"
     inkscape:window-width="1920"
     inkscape:window-height="1057"
     inkscape:window-x="-8"
     inkscape:window-y="-8"
     inkscape:window-maximized="1"
     inkscape:current-layer="g16178">
    <inkscape:grid
       type="xygrid"
       id="grid824" />
  </sodipodi:namedview>
  <defs
     id="defs2">
    <inkscape:path-effect
       effect="bspline"
       id="path-effect1328"
       is_visible="true"
       lpeversion="1"
       weight="33.333333"
       steps="2"
       helper_size="0"
       apply_no_weight="true"
       apply_with_weight="true"
       only_selected="false" />
    <inkscape:path-effect
       effect="bspline"
       id="path-effect1322"
       is_visible="true"
       lpeversion="1"
       weight="33.333333"
       steps="2"
       helper_size="0"
       apply_no_weight="true"
       apply_with_weight="true"
       only_selected="false" />
    <inkscape:path-effect
       effect="bspline"
       id="path-effect11200"
       is_visible="true"
       lpeversion="1"
       weight="33.333333"
       steps="2"
       helper_size="0"
       apply_no_weight="true"
       apply_with_weight="true"
       only_selected="false" />
    <inkscape:path-effect
       effect="bspline"
       id="path-effect11286"
       is_visible="true"
       lpeversion="1"
       weight="33.333333"
       steps="2"
       helper_size="0"
       apply_no_weight="true"
       apply_with_weight="true"
       only_selected="false" />
    <inkscape:path-effect
       effect="bspline"
       id="path-effect14694"
       is_visible="true"
       lpeversion="1"
       weight="33.333333"
       steps="2"
       helper_size="0"
       apply_no_weight="true"
       apply_with_weight="true"
       only_selected="false" />
    <inkscape:path-effect
       effect="bspline"
       id="path-effect14786"
       is_visible="true"
       lpeversion="1"
       weight="33.333333"
       steps="2"
       helper_size="0"
       apply_no_weight="true"
       apply_with_weight="true"
       only_selected="false" />
    <inkscape:path-effect
       effect="bspline"
       id="path-effect14792"
       is_visible="true"
       lpeversion="1"
       weight="33.333333"
       steps="2"
       helper_size="0"
       apply_no_weight="true"
       apply_with_weight="true"
       only_selected="false" />
    <inkscape:path-effect
       effect="bspline"
       id="path-effect14798"
       is_visible="true"
       lpeversion="1"
       weight="33.333333"
       steps="2"
       helper_size="0"
       apply_no_weight="true"
       apply_with_weight="true"
       only_selected="false" />
    <inkscape:path-effect
       effect="bspline"
       id="path-effect14804"
       is_visible="true"
       lpeversion="1"
       weight="33.333333"
       steps="2"
       helper_size="0"
       apply_no_weight="true"
       apply_with_weight="true"
       only_selected="false" />
    <inkscape:path-effect
       effect="bspline"
       id="path-effect14810"
       is_visible="true"
       lpeversion="1"
       weight="33.333333"
       steps="2"
       helper_size="0"
       apply_no_weight="true"
       apply_with_weight="true"
       only_selected="false" />
    <inkscape:path-effect
       effect="bspline"
       id="path-effect14816"
       is_visible="true"
       lpeversion="1"
       weight="33.333333"
       steps="2"
       helper_size="0"
       apply_no_weight="true"
       apply_with_weight="true"
       only_selected="false" />
    <inkscape:path-effect
       effect="bspline"
       id="path-effect14822"
       is_visible="true"
       lpeversion="1"
       weight="33.333333"
       steps="2"
       helper_size="0"
       apply_no_weight="true"
       apply_with_weight="true"
       only_selected="false" />
    <inkscape:path-effect
       effect="bspline"
       id="path-effect14828"
       is_visible="true"
       lpeversion="1"
       weight="33.333333"
       steps="2"
       helper_size="0"
       apply_no_weight="true"
       apply_with_weight="true"
       only_selected="false" />
    <inkscape:path-effect
       effect="bspline"
       id="path-effect14834"
       is_visible="true"
       lpeversion="1"
       weight="33.333333"
       steps="2"
       helper_size="0"
       apply_no_weight="true"
       apply_with_weight="true"
       only_selected="false" />
    <inkscape:path-effect
       effect="bspline"
       id="path-effect14840"
       is_visible="true"
       lpeversion="1"
       weight="33.333333"
       steps="2"
       helper_size="0"
       apply_no_weight="true"
       apply_with_weight="true"
       only_selected="false" />
    <inkscape:path-effect
       effect="bspline"
       id="path-effect14846"
       is_visible="true"
       lpeversion="1"
       weight="33.333333"
       steps="2"
       helper_size="0"
       apply_no_weight="true"
       apply_with_weight="true"
       only_selected="false" />
    <inkscape:path-effect
       effect="bspline"
       id="path-effect14852"
       is_visible="true"
       lpeversion="1"
       weight="33.333333"
       steps="2"
       helper_size="0"
       apply_no_weight="true"
       apply_with_weight="true"
       only_selected="false" />
    <inkscape:path-effect
       effect="bspline"
       id="path-effect14858"
       is_visible="true"
       lpeversion="1"
       weight="33.333333"
       steps="2"
       helper_size="0"
       apply_no_weight="true"
       apply_with_weight="true"
       only_selected="false" />
    <inkscape:path-effect
       effect="bspline"
       id="path-effect14864"
       is_visible="true"
       lpeversion="1"
       weight="33.333333"
       steps="2"
       helper_size="0"
       apply_no_weight="true"
       apply_with_weight="true"
       only_selected="false" />
    <inkscape:path-effect
       effect="bspline"
       id="path-effect14870"
       is_visible="true"
       lpeversion="1"
       weight="33.333333"
       steps="2"
       helper_size="0"
       apply_no_weight="true"
       apply_with_weight="true"
       only_selected="false" />
    <inkscape:path-effect
       effect="bspline"
       id="path-effect14876"
       is_visible="true"
       lpeversion="1"
       weight="33.333333"
       steps="2"
       helper_size="0"
       apply_no_weight="true"
       apply_with_weight="true"
       only_selected="false" />
    <inkscape:path-effect
       effect="bspline"
       id="path-effect14882"
       is_visible="true"
       lpeversion="1"
       weight="33.333333"
       steps="2"
       helper_size="0"
       apply_no_weight="true"
       apply_with_weight="true"
       only_selected="false" />
    <inkscape:path-effect
       effect="bspline"
       id="path-effect15050"
       is_visible="true"
       lpeversion="1"
       weight="33.333333"
       steps="2"
       helper_size="0"
       apply_no_weight="true"
       apply_with_weight="true"
       only_selected="false" />
    <inkscape:path-effect
       effect="bspline"
       id="path-effect15056"
       is_visible="true"
       lpeversion="1"
       weight="33.333333"
       steps="2"
       helper_size="0"
       apply_no_weight="true"
       apply_with_weight="true"
       only_selected="false" />
    <inkscape:path-effect
       effect="bspline"
       id="path-effect15062"
       is_visible="true"
       lpeversion="1"
       weight="33.333333"
       steps="2"
       helper_size="0"
       apply_no_weight="true"
       apply_with_weight="true"
       only_selected="false" />
    <inkscape:path-effect
       effect="bspline"
       id="path-effect15068"
       is_visible="true"
       lpeversion="1"
       weight="33.333333"
       steps="2"
       helper_size="0"
       apply_no_weight="true"
       apply_with_weight="true"
       only_selected="false" />
    <inkscape:path-effect
       effect="bspline"
       id="path-effect15074"
       is_visible="true"
       lpeversion="1"
       weight="33.333333"
       steps="2"
       helper_size="0"
       apply_no_weight="true"
       apply_with_weight="true"
       only_selected="false" />
    <inkscape:path-effect
       effect="bspline"
       id="path-effect15080"
       is_visible="true"
       lpeversion="1"
       weight="33.333333"
       steps="2"
       helper_size="0"
       apply_no_weight="true"
       apply_with_weight="true"
       only_selected="false" />
    <inkscape:path-effect
       effect="bspline"
       id="path-effect15086"
       is_visible="true"
       lpeversion="1"
       weight="33.333333"
       steps="2"
       helper_size="0"
       apply_no_weight="true"
       apply_with_weight="true"
       only_selected="false" />
    <inkscape:path-effect
       effect="bspline"
       id="path-effect15092"
       is_visible="true"
       lpeversion="1"
       weight="33.333333"
       steps="2"
       helper_size="0"
       apply_no_weight="true"
       apply_with_weight="true"
       only_selected="false" />
    <inkscape:path-effect
       effect="bspline"
       id="path-effect15098"
       is_visible="true"
       lpeversion="1"
       weight="33.333333"
       steps="2"
       helper_size="0"
       apply_no_weight="true"
       apply_with_weight="true"
       only_selected="false" />
    <inkscape:path-effect
       effect="bspline"
       id="path-effect15104"
       is_visible="true"
       lpeversion="1"
       weight="33.333333"
       steps="2"
       helper_size="0"
       apply_no_weight="true"
       apply_with_weight="true"
       only_selected="false" />
    <inkscape:path-effect
       effect="bspline"
       id="path-effect15110"
       is_visible="true"
       lpeversion="1"
       weight="33.333333"
       steps="2"
       helper_size="0"
       apply_no_weight="true"
       apply_with_weight="true"
       only_selected="false" />
    <inkscape:path-effect
       effect="bspline"
       id="path-effect15116"
       is_visible="true"
       lpeversion="1"
       weight="33.333333"
       steps="2"
       helper_size="0"
       apply_no_weight="true"
       apply_with_weight="true"
       only_selected="false" />
    <inkscape:path-effect
       effect="bspline"
       id="path-effect15122"
       is_visible="true"
       lpeversion="1"
       weight="33.333333"
       steps="2"
       helper_size="0"
       apply_no_weight="true"
       apply_with_weight="true"
       only_selected="false" />
    <inkscape:path-effect
       effect="bspline"
       id="path-effect15128"
       is_visible="true"
       lpeversion="1"
       weight="33.333333"
       steps="2"
       helper_size="0"
       apply_no_weight="true"
       apply_with_weight="true"
       only_selected="false" />
    <inkscape:path-effect
       effect="bspline"
       id="path-effect15134"
       is_visible="true"
       lpeversion="1"
       weight="33.333333"
       steps="2"
       helper_size="0"
       apply_no_weight="true"
       apply_with_weight="true"
       only_selected="false" />
    <inkscape:path-effect
       effect="bspline"
       id="path-effect15140"
       is_visible="true"
       lpeversion="1"
       weight="33.333333"
       steps="2"
       helper_size="0"
       apply_no_weight="true"
       apply_with_weight="true"
       only_selected="false" />
    <inkscape:path-effect
       effect="bspline"
       id="path-effect15146"
       is_visible="true"
       lpeversion="1"
       weight="33.333333"
       steps="2"
       helper_size="0"
       apply_no_weight="true"
       apply_with_weight="true"
       only_selected="false" />
    <inkscape:path-effect
       effect="bspline"
       id="path-effect15152"
       is_visible="true"
       lpeversion="1"
       weight="33.333333"
       steps="2"
       helper_size="0"
       apply_no_weight="true"
       apply_with_weight="true"
       only_selected="false" />
    <inkscape:path-effect
       effect="bspline"
       id="path-effect15158"
       is_visible="true"
       lpeversion="1"
       weight="33.333333"
       steps="2"
       helper_size="0"
       apply_no_weight="true"
       apply_with_weight="true"
       only_selected="false" />
    <inkscape:path-effect
       effect="bspline"
       id="path-effect15164"
       is_visible="true"
       lpeversion="1"
       weight="33.333333"
       steps="2"
       helper_size="0"
       apply_no_weight="true"
       apply_with_weight="true"
       only_selected="false" />
    <inkscape:path-effect
       effect="bspline"
       id="path-effect15170"
       is_visible="true"
       lpeversion="1"
       weight="33.333333"
       steps="2"
       helper_size="0"
       apply_no_weight="true"
       apply_with_weight="true"
       only_selected="false" />
    <inkscape:path-effect
       effect="bspline"
       id="path-effect15176"
       is_visible="true"
       lpeversion="1"
       weight="33.333333"
       steps="2"
       helper_size="0"
       apply_no_weight="true"
       apply_with_weight="true"
       only_selected="false" />
    <inkscape:path-effect
       effect="bspline"
       id="path-effect15182"
       is_visible="true"
       lpeversion="1"
       weight="33.333333"
       steps="2"
       helper_size="0"
       apply_no_weight="true"
       apply_with_weight="true"
       only_selected="false" />
    <inkscape:path-effect
       effect="bspline"
       id="path-effect15188"
       is_visible="true"
       lpeversion="1"
       weight="33.333333"
       steps="2"
       helper_size="0"
       apply_no_weight="true"
       apply_with_weight="true"
       only_selected="false" />
    <inkscape:path-effect
       effect="bspline"
       id="path-effect15194"
       is_visible="true"
       lpeversion="1"
       weight="33.333333"
       steps="2"
       helper_size="0"
       apply_no_weight="true"
       apply_with_weight="true"
       only_selected="false" />
    <inkscape:path-effect
       effect="bspline"
       id="path-effect15200"
       is_visible="true"
       lpeversion="1"
       weight="33.333333"
       steps="2"
       helper_size="0"
       apply_no_weight="true"
       apply_with_weight="true"
       only_selected="false" />
    <inkscape:path-effect
       effect="bspline"
       id="path-effect15206"
       is_visible="true"
       lpeversion="1"
       weight="33.333333"
       steps="2"
       helper_size="0"
       apply_no_weight="true"
       apply_with_weight="true"
       only_selected="false" />
    <inkscape:path-effect
       effect="bspline"
       id="path-effect15212"
       is_visible="true"
       lpeversion="1"
       weight="33.333333"
       steps="2"
       helper_size="0"
       apply_no_weight="true"
       apply_with_weight="true"
       only_selected="false" />
    <inkscape:path-effect
       effect="bspline"
       id="path-effect15218"
       is_visible="true"
       lpeversion="1"
       weight="33.333333"
       steps="2"
       helper_size="0"
       apply_no_weight="true"
       apply_with_weight="true"
       only_selected="false" />
    <inkscape:path-effect
       effect="bspline"
       id="path-effect15224"
       is_visible="true"
       lpeversion="1"
       weight="33.333333"
       steps="2"
       helper_size="0"
       apply_no_weight="true"
       apply_with_weight="true"
       only_selected="false" />
    <inkscape:path-effect
       effect="bspline"
       id="path-effect15230"
       is_visible="true"
       lpeversion="1"
       weight="33.333333"
       steps="2"
       helper_size="0"
       apply_no_weight="true"
       apply_with_weight="true"
       only_selected="false" />
    <inkscape:path-effect
       effect="bspline"
       id="path-effect15236"
       is_visible="true"
       lpeversion="1"
       weight="33.333333"
       steps="2"
       helper_size="0"
       apply_no_weight="true"
       apply_with_weight="true"
       only_selected="false" />
    <inkscape:path-effect
       effect="bspline"
       id="path-effect15242"
       is_visible="true"
       lpeversion="1"
       weight="33.333333"
       steps="2"
       helper_size="0"
       apply_no_weight="true"
       apply_with_weight="true"
       only_selected="false" />
    <inkscape:path-effect
       effect="bspline"
       id="path-effect15248"
       is_visible="true"
       lpeversion="1"
       weight="33.333333"
       steps="2"
       helper_size="0"
       apply_no_weight="true"
       apply_with_weight="true"
       only_selected="false" />
    <inkscape:path-effect
       effect="bspline"
       id="path-effect15254"
       is_visible="true"
       lpeversion="1"
       weight="33.333333"
       steps="2"
       helper_size="0"
       apply_no_weight="true"
       apply_with_weight="true"
       only_selected="false" />
    <inkscape:path-effect
       effect="bspline"
       id="path-effect15260"
       is_visible="true"
       lpeversion="1"
       weight="33.333333"
       steps="2"
       helper_size="0"
       apply_no_weight="true"
       apply_with_weight="true"
       only_selected="false" />
    <inkscape:path-effect
       effect="bspline"
       id="path-effect15266"
       is_visible="true"
       lpeversion="1"
       weight="33.333333"
       steps="2"
       helper_size="0"
       apply_no_weight="true"
       apply_with_weight="true"
       only_selected="false" />
    <inkscape:path-effect
       effect="bspline"
       id="path-effect15272"
       is_visible="true"
       lpeversion="1"
       weight="33.333333"
       steps="2"
       helper_size="0"
       apply_no_weight="true"
       apply_with_weight="true"
       only_selected="false" />
    <inkscape:path-effect
       effect="bspline"
       id="path-effect15278"
       is_visible="true"
       lpeversion="1"
       weight="33.333333"
       steps="2"
       helper_size="0"
       apply_no_weight="true"
       apply_with_weight="true"
       only_selected="false" />
    <inkscape:path-effect
       effect="bspline"
       id="path-effect15284"
       is_visible="true"
       lpeversion="1"
       weight="33.333333"
       steps="2"
       helper_size="0"
       apply_no_weight="true"
       apply_with_weight="true"
       only_selected="false" />
    <inkscape:path-effect
       effect="bspline"
       id="path-effect15290"
       is_visible="true"
       lpeversion="1"
       weight="33.333333"
       steps="2"
       helper_size="0"
       apply_no_weight="true"
       apply_with_weight="true"
       only_selected="false" />
    <inkscape:path-effect
       effect="bspline"
       id="path-effect15296"
       is_visible="true"
       lpeversion="1"
       weight="33.333333"
       steps="2"
       helper_size="0"
       apply_no_weight="true"
       apply_with_weight="true"
       only_selected="false" />
    <inkscape:path-effect
       effect="bspline"
       id="path-effect15302"
       is_visible="true"
       lpeversion="1"
       weight="33.333333"
       steps="2"
       helper_size="0"
       apply_no_weight="true"
       apply_with_weight="true"
       only_selected="false" />
    <inkscape:path-effect
       effect="bspline"
       id="path-effect15308"
       is_visible="true"
       lpeversion="1"
       weight="33.333333"
       steps="2"
       helper_size="0"
       apply_no_weight="true"
       apply_with_weight="true"
       only_selected="false" />
    <inkscape:path-effect
       effect="bspline"
       id="path-effect15314"
       is_visible="true"
       lpeversion="1"
       weight="33.333333"
       steps="2"
       helper_size="0"
       apply_no_weight="true"
       apply_with_weight="true"
       only_selected="false" />
    <inkscape:path-effect
       effect="bspline"
       id="path-effect15320"
       is_visible="true"
       lpeversion="1"
       weight="33.333333"
       steps="2"
       helper_size="0"
       apply_no_weight="true"
       apply_with_weight="true"
       only_selected="false" />
    <inkscape:path-effect
       effect="bspline"
       id="path-effect15326"
       is_visible="true"
       lpeversion="1"
       weight="33.333333"
       steps="2"
       helper_size="0"
       apply_no_weight="true"
       apply_with_weight="true"
       only_selected="false" />
    <inkscape:path-effect
       effect="bspline"
       id="path-effect15332"
       is_visible="true"
       lpeversion="1"
       weight="33.333333"
       steps="2"
       helper_size="0"
       apply_no_weight="true"
       apply_with_weight="true"
       only_selected="false" />
  </defs>
  <g
     inkscape:label="Livello 1"
     inkscape:groupmode="layer"
     id="layer1">
    <g
       id="g16178"
       inkscape:label="ELEVATOR_EL48"
       transform="translate(-324.3792,-17.462499)"
       inkscape:groupmode="layer">
      <rect
         style="fill:#cccccc;stroke:#808080;stroke-width:0.157414;stroke-miterlimit:4;stroke-dasharray:none;stroke-opacity:1"
         id="rect9899"
         width="5.2916665"
         height="35.454166"
         x="338.66669"
         y="20.10837"
         rx="0.026458334" />
      <circle
         cx="341.33316"
         cy="52.667736"
         fill="#4d4d4d"
         id="circle1221"
         style="stroke-width:0.219913"
         r="1.27" />
      <circle
         fill="#cccccc"
         cx="341.32501"
         cy="51.770542"
         id="circle3298"
         style="stroke-width:0.0575968"
         r="0.21166666" />
      <circle
         fill="#cccccc"
         cx="340.45233"
         cy="52.650776"
         id="circle3301"
         style="stroke-width:0.0575968"
         r="0.21166666" />
      <circle
         fill="#cccccc"
         cx="342.22165"
         cy="52.650852"
         id="circle3303"
         style="stroke-width:0.0575968"
         r="0.21166666" />
      <circle
         fill="#cccccc"
         cx="341.32501"
         cy="53.538631"
         id="circle3305"
         style="stroke-width:0.0575968"
         r="0.21166666" />
      <circle
         cx="341.33316"
         cy="23.034418"
         fill="#4d4d4d"
         id="circle11040"
         style="stroke-width:0.219913"
         r="1.27" />
      <circle
         fill="#cccccc"
         cx="341.32501"
         cy="22.137178"
         id="circle11042"
         style="stroke-width:0.0575968"
         r="0.21166666" />
      <circle
         fill="#cccccc"
         cx="340.45233"
         cy="23.017458"
         id="circle11044"
         style="stroke-width:0.0575968"
         r="0.21166666" />
      <circle
         fill="#cccccc"
         cx="342.22165"
         cy="23.017488"
         id="circle11046"
         style="stroke-width:0.0575968"
         r="0.21166666" />
      <circle
         fill="#cccccc"
         cx="341.32501"
         cy="23.905298"
         id="circle11048"
         style="stroke-width:0.0575968"
         r="0.21166666" />
      <path
         style="fill:none;stroke:#000000;stroke-width:0.169333px;stroke-linecap:butt;stroke-linejoin:miter;stroke-opacity:1"
         d="m 342.66716,24.38138 c 0,-0.50783 0,-1.01583 -0.0564,-1.410923 -0.0564,-0.395093 -0.16929,-0.677308 -0.39501,-0.874934 -0.22572,-0.197626 -0.56439,-0.310514 -0.87489,-0.310562 -0.31051,-4.7e-5 -0.59272,0.112838 -0.81856,0.310438 -0.22584,0.1976 -0.39517,0.479815 -0.47982,0.874988 -0.0847,0.395173 -0.0847,0.903163 -0.0847,1.410993"
         id="path11198"
         inkscape:path-effect="#path-effect11200"
         inkscape:original-d="m 342.66716,24.38138 c 1.6e-4,-0.50783 1.7e-4,-1.01583 0,-1.523997 -0.11273,-0.28205 -0.2256,-0.56427 -0.33866,-0.84666 -0.33851,-0.11272 -0.67717,-0.22561 -1.016,-0.33867 -0.28207,0.11306 -0.56428,0.22595 -0.84667,0.33867 -0.16916,0.2824 -0.3385,0.56461 -0.508,0.84666 1.7e-4,0.508177 1.7e-4,1.016167 0,1.523997" />
      <path
         style="fill:none;stroke:#000000;stroke-width:0.169333px;stroke-linecap:butt;stroke-linejoin:miter;stroke-opacity:1"
         d="m 342.66716,51.333605 c 0,0.50783 0,1.01583 -0.0564,1.410928 -0.0564,0.395098 -0.16929,0.677316 -0.39501,0.874939 -0.22572,0.197623 -0.56438,0.310508 -0.87488,0.310558 -0.31051,5.1e-5 -0.59272,-0.112833 -0.81856,-0.31043 -0.22584,-0.197598 -0.39517,-0.479824 -0.47982,-0.874994 -0.0847,-0.395171 -0.0847,-0.903171 -0.0847,-1.411001"
         id="path11282"
         inkscape:path-effect="#path-effect11286"
         inkscape:original-d="m 342.66716,51.333605 c 1.7e-4,0.50783 1.8e-4,1.01583 0,1.52401 -0.11272,0.28205 -0.2256,0.56427 -0.33866,0.84666 -0.3385,0.11272 -0.67716,0.22561 -1.016,0.33866 -0.28206,-0.11305 -0.56427,-0.22594 -0.84666,-0.33866 -0.16917,-0.28239 -0.3385,-0.56462 -0.508,-0.84666 1.6e-4,-0.50818 1.6e-4,-1.01618 0,-1.52401" />
      <path
         style="fill:none;stroke:#000000;stroke-width:0.169;stroke-linecap:butt;stroke-linejoin:miter;stroke-miterlimit:4;stroke-dasharray:none;stroke-opacity:1"
         d="m 339.98958,49.212448 c 0,-0.35251 0,-0.70529 0,-0.79348 0,-0.08819 0,0.08819 0,0.08819 0,0 0,-0.17638 -0.0439,-0.26471 -0.0439,-0.08833 -0.13218,-0.08833 -0.26448,-0.08833 -0.13229,0 -0.30866,0 -0.44094,0 -0.13228,0 -0.22051,0 -0.17654,-0.0882 0.044,-0.0882 0.22035,-0.264575 0.35262,-0.396848 0.13227,-0.132272 0.22051,-0.220511 0.30881,-0.264607 0.0883,-0.0441 0.17656,-0.0441 0.22052,-0.08805 0.044,-0.04395 0.044,-0.13217 0.044,-0.22035 0,-0.08818 0,-0.17641 0,-0.26459 0,-0.08818 0,-0.1764 0,-0.26458 0,-0.08818 0,-0.1764 0,-0.26486"
         id="path14692"
         inkscape:path-effect="#path-effect14694"
         inkscape:original-d="m 339.98958,49.212448 c 2.6e-4,-0.35251 2.6e-4,-0.70529 0,-1.05833 2.6e-4,0.17666 2.6e-4,0.35304 0,0.52917 2.6e-4,-0.17613 2.6e-4,-0.35251 0,-0.52917 -0.0879,2.7e-4 -0.17613,2.7e-4 -0.26458,0 -0.17614,2.7e-4 -0.35251,2.7e-4 -0.52917,0 -0.0879,2.7e-4 -0.17613,2.7e-4 -0.26458,0 0.17666,-0.17613 0.35303,-0.35251 0.52916,-0.52917 0.0884,-0.0879 0.17666,-0.17612 0.26459,-0.26458 0.0884,2.7e-4 0.17666,2.7e-4 0.26458,0 2.6e-4,-0.0879 2.6e-4,-0.17612 0,-0.26458 2.6e-4,-0.0879 2.6e-4,-0.17613 0,-0.26459 2.6e-4,-0.0879 2.6e-4,-0.17612 0,-0.26458 2.6e-4,-0.0879 2.6e-4,-0.17612 0,-0.26458" />
      <path
         style="fill:none;stroke:#000000;stroke-width:0.169;stroke-linecap:butt;stroke-linejoin:miter;stroke-miterlimit:4;stroke-dasharray:none;stroke-opacity:1"
         d="m 342.65611,46.302038 c 0,0.35251 0,0.70529 0,0.79348 0,0.08819 0,-0.08819 0,-0.08819 0,0 0,0.17638 0.0439,0.26471 0.0439,0.08833 0.13218,0.08833 0.26447,0.08833 0.1323,0 0.30867,0 0.44095,0 0.13228,0 0.22051,0 0.17654,0.0882 -0.044,0.0882 -0.22035,0.264575 -0.35262,0.396848 -0.13227,0.132272 -0.22051,0.220511 -0.30881,0.264607 -0.0883,0.0441 -0.17656,0.0441 -0.22052,0.08805 -0.044,0.04395 -0.044,0.13217 -0.044,0.22035 0,0.08818 0,0.17641 0,0.26459 0,0.08818 0,0.1764 0,0.26458 0,0.08818 0,0.1764 0,0.26486"
         id="path14782"
         inkscape:path-effect="#path-effect14786"
         inkscape:original-d="m 342.65611,46.302038 c -2.6e-4,0.35251 -2.6e-4,0.70529 0,1.05833 -2.6e-4,-0.17666 -2.6e-4,-0.35304 0,-0.52917 -2.6e-4,0.17613 -2.6e-4,0.35251 0,0.52917 0.0879,-2.7e-4 0.17613,-2.7e-4 0.26458,0 0.17614,-2.7e-4 0.35251,-2.7e-4 0.52917,0 0.0879,-2.7e-4 0.17613,-2.7e-4 0.26458,0 -0.17666,0.17613 -0.35303,0.35251 -0.52916,0.52917 -0.0884,0.0879 -0.17666,0.17612 -0.26459,0.26458 -0.0884,-2.7e-4 -0.17666,-2.7e-4 -0.26458,0 -2.6e-4,0.0879 -2.6e-4,0.17612 0,0.26458 -2.6e-4,0.0879 -2.6e-4,0.17613 0,0.26459 -2.6e-4,0.0879 -2.6e-4,0.17612 0,0.26458 -2.6e-4,0.0879 -2.6e-4,0.17612 0,0.26458" />
      <path
         style="fill:none;stroke:#000000;stroke-width:0.169;stroke-linecap:butt;stroke-linejoin:miter;stroke-miterlimit:4;stroke-dasharray:none;stroke-opacity:1"
         d="m 339.96889,45.243708 c 0,-0.35251 0,-0.70529 0,-0.793479 0,-0.08819 0,0.08819 0,0.08819 0,0 0,-0.176377 -0.0439,-0.264707 -0.0439,-0.08833 -0.13218,-0.08833 -0.26448,-0.08833 -0.13229,0 -0.30866,0 -0.44094,0 -0.13228,0 -0.22051,0 -0.17654,-0.0882 0.044,-0.0882 0.22035,-0.264575 0.35262,-0.396848 0.13227,-0.132272 0.22051,-0.220511 0.30881,-0.264607 0.0883,-0.0441 0.17656,-0.0441 0.22052,-0.08805 0.044,-0.04395 0.044,-0.13217 0.044,-0.22035 0,-0.08818 0,-0.17641 0,-0.26459 0,-0.08818 0,-0.1764 0,-0.26458 0,-0.08818 0,-0.1764 0,-0.26486"
         id="path14788"
         inkscape:path-effect="#path-effect14792"
         inkscape:original-d="m 339.96889,45.243708 c 2.6e-4,-0.35251 2.6e-4,-0.70529 0,-1.058327 2.6e-4,0.17666 2.6e-4,0.353037 0,0.529167 2.6e-4,-0.17613 2.6e-4,-0.352507 0,-0.529167 -0.0879,2.7e-4 -0.17613,2.7e-4 -0.26458,0 -0.17614,2.7e-4 -0.35251,2.7e-4 -0.52917,0 -0.0879,2.7e-4 -0.17613,2.7e-4 -0.26458,0 0.17666,-0.17613 0.35303,-0.35251 0.52916,-0.52917 0.0884,-0.0879 0.17666,-0.17612 0.26459,-0.26458 0.0884,2.7e-4 0.17666,2.7e-4 0.26458,0 2.6e-4,-0.0879 2.6e-4,-0.17612 0,-0.26458 2.6e-4,-0.0879 2.6e-4,-0.17613 0,-0.26459 2.6e-4,-0.0879 2.6e-4,-0.17612 0,-0.26458 2.6e-4,-0.0879 2.6e-4,-0.17612 0,-0.26458" />
      <path
         style="fill:none;stroke:#000000;stroke-width:0.169;stroke-linecap:butt;stroke-linejoin:miter;stroke-miterlimit:4;stroke-dasharray:none;stroke-opacity:1"
         d="m 342.63542,42.333301 c 0,0.35251 0,0.70529 0,0.79348 0,0.08819 0,-0.08819 0,-0.08819 0,0 0,0.17638 0.0439,0.26471 0.0439,0.08833 0.13218,0.08833 0.26447,0.08833 0.1323,0 0.30867,0 0.44095,0 0.13228,0 0.22051,0 0.17654,0.0882 -0.044,0.0882 -0.22035,0.264575 -0.35262,0.396848 -0.13227,0.132272 -0.22051,0.220511 -0.30881,0.264607 -0.0883,0.0441 -0.17656,0.0441 -0.22052,0.08805 -0.044,0.04395 -0.044,0.13217 -0.044,0.220349 0,0.08818 0,0.176408 0,0.264588 0,0.08818 0,0.1764 0,0.26458 0,0.08818 0,0.1764 0,0.26486"
         id="path14794"
         inkscape:path-effect="#path-effect14798"
         inkscape:original-d="m 342.63542,42.333301 c -2.6e-4,0.35251 -2.6e-4,0.70529 0,1.05833 -2.6e-4,-0.17666 -2.6e-4,-0.35304 0,-0.52917 -2.6e-4,0.17613 -2.6e-4,0.35251 0,0.52917 0.0879,-2.7e-4 0.17613,-2.7e-4 0.26458,0 0.17614,-2.7e-4 0.35251,-2.7e-4 0.52917,0 0.0879,-2.7e-4 0.17613,-2.7e-4 0.26458,0 -0.17666,0.17613 -0.35303,0.35251 -0.52916,0.52917 -0.0884,0.0879 -0.17666,0.17612 -0.26459,0.26458 -0.0884,-2.7e-4 -0.17666,-2.7e-4 -0.26458,0 -2.6e-4,0.0879 -2.6e-4,0.17612 0,0.264577 -2.6e-4,0.0879 -2.6e-4,0.17613 0,0.26459 -2.6e-4,0.0879 -2.6e-4,0.17612 0,0.26458 -2.6e-4,0.0879 -2.6e-4,0.17612 0,0.26458" />
      <path
         style="fill:none;stroke:#000000;stroke-width:0.169;stroke-linecap:butt;stroke-linejoin:miter;stroke-miterlimit:4;stroke-dasharray:none;stroke-opacity:1"
         d="m 339.96889,41.334241 c 0,-0.35251 0,-0.70529 0,-0.79348 0,-0.08819 0,0.08819 0,0.08819 0,0 0,-0.17638 -0.0439,-0.26471 -0.0439,-0.08833 -0.13218,-0.08833 -0.26448,-0.08833 -0.13229,0 -0.30866,0 -0.44094,0 -0.13228,0 -0.22051,0 -0.17654,-0.0882 0.044,-0.0882 0.22035,-0.264575 0.35262,-0.396848 0.13227,-0.132272 0.22051,-0.220511 0.30881,-0.264607 0.0883,-0.0441 0.17656,-0.0441 0.22052,-0.08805 0.044,-0.04395 0.044,-0.13217 0.044,-0.22035 0,-0.08818 0,-0.176407 0,-0.264587 0,-0.08818 0,-0.1764 0,-0.26458 0,-0.08818 0,-0.1764 0,-0.26486"
         id="path14800"
         inkscape:path-effect="#path-effect14804"
         inkscape:original-d="m 339.96889,41.334241 c 2.6e-4,-0.35251 2.6e-4,-0.70529 0,-1.05833 2.6e-4,0.17666 2.6e-4,0.35304 0,0.52917 2.6e-4,-0.17613 2.6e-4,-0.35251 0,-0.52917 -0.0879,2.7e-4 -0.17613,2.7e-4 -0.26458,0 -0.17614,2.7e-4 -0.35251,2.7e-4 -0.52917,0 -0.0879,2.7e-4 -0.17613,2.7e-4 -0.26458,0 0.17666,-0.17613 0.35303,-0.35251 0.52916,-0.52917 0.0884,-0.0879 0.17666,-0.17612 0.26459,-0.26458 0.0884,2.7e-4 0.17666,2.7e-4 0.26458,0 2.6e-4,-0.0879 2.6e-4,-0.17612 0,-0.26458 2.6e-4,-0.0879 2.6e-4,-0.176127 0,-0.264587 2.6e-4,-0.0879 2.6e-4,-0.17612 0,-0.26458 2.6e-4,-0.0879 2.6e-4,-0.17612 0,-0.26458" />
      <path
         style="fill:none;stroke:#000000;stroke-width:0.169;stroke-linecap:butt;stroke-linejoin:miter;stroke-miterlimit:4;stroke-dasharray:none;stroke-opacity:1"
         d="m 342.63542,38.423834 c 0,0.35251 0,0.70529 0,0.793478 0,0.08819 0,-0.08819 0,-0.08819 0,0 0,0.176377 0.0439,0.264707 0.0439,0.08833 0.13218,0.08833 0.26447,0.08833 0.1323,0 0.30867,0 0.44095,0 0.13228,0 0.22051,0 0.17654,0.0882 -0.044,0.0882 -0.22035,0.264575 -0.35262,0.396848 -0.13227,0.132272 -0.22051,0.220511 -0.30881,0.264607 -0.0883,0.0441 -0.17656,0.0441 -0.22052,0.08805 -0.044,0.04395 -0.044,0.13217 -0.044,0.22035 0,0.08818 0,0.17641 0,0.26459 0,0.08818 0,0.1764 0,0.26458 0,0.08818 0,0.1764 0,0.26486"
         id="path14806"
         inkscape:path-effect="#path-effect14810"
         inkscape:original-d="m 342.63542,38.423834 c -2.6e-4,0.35251 -2.6e-4,0.70529 0,1.058327 -2.6e-4,-0.17666 -2.6e-4,-0.353037 0,-0.529167 -2.6e-4,0.17613 -2.6e-4,0.352507 0,0.529167 0.0879,-2.7e-4 0.17613,-2.7e-4 0.26458,0 0.17614,-2.7e-4 0.35251,-2.7e-4 0.52917,0 0.0879,-2.7e-4 0.17613,-2.7e-4 0.26458,0 -0.17666,0.17613 -0.35303,0.35251 -0.52916,0.52917 -0.0884,0.0879 -0.17666,0.17612 -0.26459,0.26458 -0.0884,-2.7e-4 -0.17666,-2.7e-4 -0.26458,0 -2.6e-4,0.0879 -2.6e-4,0.17612 0,0.26458 -2.6e-4,0.0879 -2.6e-4,0.17613 0,0.26459 -2.6e-4,0.0879 -2.6e-4,0.17612 0,0.26458 -2.6e-4,0.0879 -2.6e-4,0.17612 0,0.26458" />
      <path
         style="fill:none;stroke:#000000;stroke-width:0.169;stroke-linecap:butt;stroke-linejoin:miter;stroke-miterlimit:4;stroke-dasharray:none;stroke-opacity:1"
         d="m 339.96889,37.306214 c 0,-0.35251 0,-0.70529 0,-0.79348 0,-0.08819 0,0.08819 0,0.08819 0,0 0,-0.17638 -0.0439,-0.26471 -0.0439,-0.08833 -0.13218,-0.08833 -0.26448,-0.08833 -0.13229,0 -0.30866,0 -0.44094,0 -0.13228,0 -0.22051,0 -0.17654,-0.0882 0.044,-0.0882 0.22035,-0.264575 0.35262,-0.396848 0.13227,-0.132272 0.22051,-0.220511 0.30881,-0.264607 0.0883,-0.0441 0.17656,-0.0441 0.22052,-0.08805 0.044,-0.04395 0.044,-0.13217 0.044,-0.22035 0,-0.08818 0,-0.17641 0,-0.26459 0,-0.08818 0,-0.1764 0,-0.26458 0,-0.08818 0,-0.1764 0,-0.26486"
         id="path14812"
         inkscape:path-effect="#path-effect14816"
         inkscape:original-d="m 339.96889,37.306214 c 2.6e-4,-0.35251 2.6e-4,-0.70529 0,-1.05833 2.6e-4,0.17666 2.6e-4,0.35304 0,0.52917 2.6e-4,-0.17613 2.6e-4,-0.35251 0,-0.52917 -0.0879,2.7e-4 -0.17613,2.7e-4 -0.26458,0 -0.17614,2.7e-4 -0.35251,2.7e-4 -0.52917,0 -0.0879,2.7e-4 -0.17613,2.7e-4 -0.26458,0 0.17666,-0.17613 0.35303,-0.35251 0.52916,-0.52917 0.0884,-0.0879 0.17666,-0.17612 0.26459,-0.26458 0.0884,2.7e-4 0.17666,2.7e-4 0.26458,0 2.6e-4,-0.0879 2.6e-4,-0.17612 0,-0.26458 2.6e-4,-0.0879 2.6e-4,-0.17613 0,-0.26459 2.6e-4,-0.0879 2.6e-4,-0.17612 0,-0.26458 2.6e-4,-0.0879 2.6e-4,-0.17612 0,-0.26458" />
      <path
         style="fill:none;stroke:#000000;stroke-width:0.169;stroke-linecap:butt;stroke-linejoin:miter;stroke-miterlimit:4;stroke-dasharray:none;stroke-opacity:1"
         d="m 342.63542,34.395804 c 0,0.35251 0,0.70529 0,0.79348 0,0.08819 0,-0.08819 0,-0.08819 0,0 0,0.17638 0.0439,0.26471 0.0439,0.08833 0.13218,0.08833 0.26447,0.08833 0.1323,0 0.30867,0 0.44095,0 0.13228,0 0.22051,0 0.17654,0.0882 -0.044,0.0882 -0.22035,0.264575 -0.35262,0.396848 -0.13227,0.132272 -0.22051,0.220511 -0.30881,0.264607 -0.0883,0.0441 -0.17656,0.0441 -0.22052,0.08805 -0.044,0.04395 -0.044,0.13217 -0.044,0.22035 0,0.08818 0,0.17641 0,0.26459 0,0.08818 0,0.1764 0,0.26458 0,0.08818 0,0.1764 0,0.26486"
         id="path14818"
         inkscape:path-effect="#path-effect14822"
         inkscape:original-d="m 342.63542,34.395804 c -2.6e-4,0.35251 -2.6e-4,0.70529 0,1.05833 -2.6e-4,-0.17666 -2.6e-4,-0.35304 0,-0.52917 -2.6e-4,0.17613 -2.6e-4,0.35251 0,0.52917 0.0879,-2.7e-4 0.17613,-2.7e-4 0.26458,0 0.17614,-2.7e-4 0.35251,-2.7e-4 0.52917,0 0.0879,-2.7e-4 0.17613,-2.7e-4 0.26458,0 -0.17666,0.17613 -0.35303,0.35251 -0.52916,0.52917 -0.0884,0.0879 -0.17666,0.17612 -0.26459,0.26458 -0.0884,-2.7e-4 -0.17666,-2.7e-4 -0.26458,0 -2.6e-4,0.0879 -2.6e-4,0.17612 0,0.26458 -2.6e-4,0.0879 -2.6e-4,0.17613 0,0.26459 -2.6e-4,0.0879 -2.6e-4,0.17612 0,0.26458 -2.6e-4,0.0879 -2.6e-4,0.17612 0,0.26458" />
      <path
         style="fill:none;stroke:#000000;stroke-width:0.169;stroke-linecap:butt;stroke-linejoin:miter;stroke-miterlimit:4;stroke-dasharray:none;stroke-opacity:1"
         d="m 339.9482,33.337477 c 0,-0.35251 0,-0.70529 0,-0.79348 0,-0.08819 0,0.08819 0,0.08819 0,0 0,-0.17638 -0.0439,-0.26471 -0.0439,-0.08833 -0.13218,-0.08833 -0.26448,-0.08833 -0.13229,0 -0.30866,0 -0.44094,0 -0.13228,0 -0.22051,0 -0.17654,-0.0882 0.044,-0.0882 0.22035,-0.264575 0.35262,-0.396848 0.13227,-0.132272 0.22051,-0.220511 0.30881,-0.264607 0.0883,-0.0441 0.17656,-0.0441 0.22052,-0.08805 0.044,-0.04395 0.044,-0.13217 0.044,-0.22035 0,-0.08818 0,-0.17641 0,-0.26459 0,-0.08818 0,-0.1764 0,-0.26458 0,-0.08818 0,-0.1764 0,-0.26486"
         id="path14824"
         inkscape:path-effect="#path-effect14828"
         inkscape:original-d="m 339.9482,33.337477 c 2.6e-4,-0.35251 2.6e-4,-0.70529 0,-1.05833 2.6e-4,0.17666 2.6e-4,0.35304 0,0.52917 2.6e-4,-0.17613 2.6e-4,-0.35251 0,-0.52917 -0.0879,2.7e-4 -0.17613,2.7e-4 -0.26458,0 -0.17614,2.7e-4 -0.35251,2.7e-4 -0.52917,0 -0.0879,2.7e-4 -0.17613,2.7e-4 -0.26458,0 0.17666,-0.17613 0.35303,-0.35251 0.52916,-0.52917 0.0884,-0.0879 0.17666,-0.17612 0.26459,-0.26458 0.0884,2.7e-4 0.17666,2.7e-4 0.26458,0 2.6e-4,-0.0879 2.6e-4,-0.17612 0,-0.26458 2.6e-4,-0.0879 2.6e-4,-0.17613 0,-0.26459 2.6e-4,-0.0879 2.6e-4,-0.17612 0,-0.26458 2.6e-4,-0.0879 2.6e-4,-0.17612 0,-0.26458" />
      <path
         style="fill:none;stroke:#000000;stroke-width:0.169;stroke-linecap:butt;stroke-linejoin:miter;stroke-miterlimit:4;stroke-dasharray:none;stroke-opacity:1"
         d="m 342.61473,30.427067 c 0,0.35251 0,0.70529 0,0.79348 0,0.08819 0,-0.08819 0,-0.08819 0,0 0,0.17638 0.0439,0.26471 0.0439,0.08833 0.13218,0.08833 0.26447,0.08833 0.1323,0 0.30867,0 0.44095,0 0.13228,0 0.22051,0 0.17654,0.0882 -0.044,0.0882 -0.22035,0.264575 -0.35262,0.396848 -0.13227,0.132272 -0.22051,0.220511 -0.30881,0.264607 -0.0883,0.0441 -0.17656,0.0441 -0.22052,0.08805 -0.044,0.04395 -0.044,0.13217 -0.044,0.22035 0,0.08818 0,0.17641 0,0.26459 0,0.08818 0,0.1764 0,0.26458 0,0.08818 0,0.1764 0,0.26486"
         id="path14830"
         inkscape:path-effect="#path-effect14834"
         inkscape:original-d="m 342.61473,30.427067 c -2.6e-4,0.35251 -2.6e-4,0.70529 0,1.05833 -2.6e-4,-0.17666 -2.6e-4,-0.35304 0,-0.52917 -2.6e-4,0.17613 -2.6e-4,0.35251 0,0.52917 0.0879,-2.7e-4 0.17613,-2.7e-4 0.26458,0 0.17614,-2.7e-4 0.35251,-2.7e-4 0.52917,0 0.0879,-2.7e-4 0.17613,-2.7e-4 0.26458,0 -0.17666,0.17613 -0.35303,0.35251 -0.52916,0.52917 -0.0884,0.0879 -0.17666,0.17612 -0.26459,0.26458 -0.0884,-2.7e-4 -0.17666,-2.7e-4 -0.26458,0 -2.6e-4,0.0879 -2.6e-4,0.17612 0,0.26458 -2.6e-4,0.0879 -2.6e-4,0.17613 0,0.26459 -2.6e-4,0.0879 -2.6e-4,0.17612 0,0.26458 -2.6e-4,0.0879 -2.6e-4,0.17612 0,0.26458" />
      <path
         style="fill:none;stroke:#000000;stroke-width:0.169;stroke-linecap:butt;stroke-linejoin:miter;stroke-miterlimit:4;stroke-dasharray:none;stroke-opacity:1"
         d="m 339.9575,24.34169 v 1.32292"
         id="path15563" />
      <path
         style="fill:none;stroke:#000000;stroke-width:0.169;stroke-linecap:butt;stroke-linejoin:miter;stroke-miterlimit:4;stroke-dasharray:none;stroke-opacity:1"
         d="m 342.6675,24.34169 v 1.32292"
         id="path15645" />
      <path
         style="fill:none;stroke:#000000;stroke-width:0.169;stroke-linecap:butt;stroke-linejoin:miter;stroke-miterlimit:4;stroke-dasharray:none;stroke-opacity:1"
         d="m 339.9575,50.270835 v 1.32292"
         id="path15647" />
      <path
         style="fill:none;stroke:#000000;stroke-width:0.169;stroke-linecap:butt;stroke-linejoin:miter;stroke-miterlimit:4;stroke-dasharray:none;stroke-opacity:1"
         d="m 342.6675,50.270835 v 1.32292"
         id="path15649" />
      <path
         style="fill:#cccccc;stroke:#808080;stroke-width:0.264583px;stroke-linecap:butt;stroke-linejoin:miter;stroke-opacity:1"
         d="m 338.89583,52.916625 -5.29166,-5.291667 h 5.29166"
         id="path15684" />
      <path
         style="fill:#cccccc;stroke:#808080;stroke-width:0.264583px;stroke-linecap:butt;stroke-linejoin:miter;stroke-opacity:1"
         d="m 343.73256,22.715403 5.29166,5.291667 h -5.29166"
         id="path15802" />
      <path
         style="fill:none;stroke:#000000;stroke-width:0.169;stroke-linecap:butt;stroke-linejoin:miter;stroke-miterlimit:4;stroke-dasharray:none;stroke-opacity:1"
         d="m 339.9482,29.633317 c 0,-0.35251 0,-0.70529 0,-0.79348 0,-0.08819 0,0.08819 0,0.08819 0,0 0,-0.17638 -0.0439,-0.26471 -0.0439,-0.08833 -0.13218,-0.08833 -0.26448,-0.08833 -0.13229,0 -0.30866,0 -0.44094,0 -0.13228,0 -0.22051,0 -0.17654,-0.0882 0.044,-0.0882 0.22035,-0.264574 0.35262,-0.396846 0.13227,-0.132272 0.22051,-0.220511 0.30881,-0.264607 0.0883,-0.0441 0.17656,-0.0441 0.22052,-0.08805 0.044,-0.04395 0.044,-0.13217 0.044,-0.22035 0,-0.08818 0,-0.17641 0,-0.26459 0,-0.08818 0,-0.1764 0,-0.26458 0,-0.08818 0,-0.1764 0,-0.26486"
         id="path1318"
         inkscape:path-effect="#path-effect1322"
         inkscape:original-d="m 339.9482,29.633317 c 2.6e-4,-0.35251 2.6e-4,-0.70529 0,-1.05833 2.6e-4,0.17666 2.6e-4,0.35304 0,0.52917 2.6e-4,-0.17613 2.6e-4,-0.35251 0,-0.52917 -0.0879,2.7e-4 -0.17613,2.7e-4 -0.26458,0 -0.17614,2.7e-4 -0.35251,2.7e-4 -0.52917,0 -0.0879,2.7e-4 -0.17613,2.7e-4 -0.26458,0 0.17666,-0.176127 0.35303,-0.352507 0.52916,-0.529167 0.0884,-0.0879 0.17666,-0.17612 0.26459,-0.26458 0.0884,2.7e-4 0.17666,2.7e-4 0.26458,0 2.6e-4,-0.0879 2.6e-4,-0.17612 0,-0.26458 2.6e-4,-0.0879 2.6e-4,-0.17613 0,-0.26459 2.6e-4,-0.0879 2.6e-4,-0.17612 0,-0.26458 2.6e-4,-0.0879 2.6e-4,-0.17612 0,-0.26458" />
      <path
         style="fill:none;stroke:#000000;stroke-width:0.169;stroke-linecap:butt;stroke-linejoin:miter;stroke-miterlimit:4;stroke-dasharray:none;stroke-opacity:1"
         d="m 342.61473,26.72291 c 0,0.35251 0,0.70529 0,0.79348 0,0.08819 0,-0.08819 0,-0.08819 0,0 0,0.17638 0.0439,0.26471 0.0439,0.08833 0.13218,0.08833 0.26447,0.08833 0.1323,0 0.30867,0 0.44095,0 0.13228,0 0.22051,0 0.17654,0.0882 -0.044,0.0882 -0.22035,0.264575 -0.35262,0.396848 -0.13227,0.132272 -0.22051,0.22051 -0.30881,0.264605 -0.0883,0.0441 -0.17656,0.0441 -0.22052,0.08805 -0.044,0.04395 -0.044,0.13217 -0.044,0.22035 0,0.08818 0,0.17641 0,0.26459 0,0.08818 0,0.1764 0,0.26458 0,0.08818 0,0.1764 0,0.26486"
         id="path1324"
         inkscape:path-effect="#path-effect1328"
         inkscape:original-d="m 342.61473,26.72291 c -2.6e-4,0.35251 -2.6e-4,0.70529 0,1.05833 -2.6e-4,-0.17666 -2.6e-4,-0.35304 0,-0.52917 -2.6e-4,0.17613 -2.6e-4,0.35251 0,0.52917 0.0879,-2.7e-4 0.17613,-2.7e-4 0.26458,0 0.17614,-2.7e-4 0.35251,-2.7e-4 0.52917,0 0.0879,-2.7e-4 0.17613,-2.7e-4 0.26458,0 -0.17666,0.17613 -0.35303,0.35251 -0.52916,0.52917 -0.0884,0.0879 -0.17666,0.17612 -0.26459,0.264577 -0.0884,-2.7e-4 -0.17666,-2.7e-4 -0.26458,0 -2.6e-4,0.0879 -2.6e-4,0.17612 0,0.26458 -2.6e-4,0.0879 -2.6e-4,0.17613 0,0.26459 -2.6e-4,0.0879 -2.6e-4,0.17612 0,0.26458 -2.6e-4,0.0879 -2.6e-4,0.17612 0,0.26458" />
    </g>
  </g>
</svg>
