<?xml version="1.0" encoding="UTF-8" standalone="no"?>
<!-- Generator: Adobe Illustrator 19.0.0, SVG Export Plug-In . SVG Version: 6.00 Build 0)  -->

<svg
   version="1.1"
   id="Layer_1"
   x="0px"
   y="0px"
   viewBox="0 0 496.162 496.162"
   style="enable-background:new 0 0 496.162 496.162;"
   xml:space="preserve"
   sodipodi:docname="traffic-light-svgrepo-com_red.svg"
   inkscape:version="1.1.1 (3bf5ae0d25, 2021-09-20)"
   xmlns:inkscape="http://www.inkscape.org/namespaces/inkscape"
   xmlns:sodipodi="http://sodipodi.sourceforge.net/DTD/sodipodi-0.dtd"
   xmlns="http://www.w3.org/2000/svg"
   xmlns:svg="http://www.w3.org/2000/svg"><defs
   id="defs57" /><sodipodi:namedview
   id="namedview55"
   pagecolor="#505050"
   bordercolor="#eeeeee"
   borderopacity="1"
   inkscape:pageshadow="0"
   inkscape:pageopacity="0"
   inkscape:pagecheckerboard="0"
   showgrid="false"
   inkscape:zoom="1.6607479"
   inkscape:cx="246.87672"
   inkscape:cy="247.77993"
   inkscape:window-width="1920"
   inkscape:window-height="1009"
   inkscape:window-x="-8"
   inkscape:window-y="-8"
   inkscape:window-maximized="1"
   inkscape:current-layer="Layer_1" />



<path
   style="fill:#E5E5E5;"
   d="M248.081,32.082c-52.079,0-94.304,24.952-94.304,55.732v253.533c0,30.78,42.225,55.732,94.304,55.732  s94.304-24.952,94.304-55.732V87.814C342.385,57.034,300.16,32.082,248.081,32.082z"
   id="path8" />
<path
   style="fill:#3B3B3B;"
   d="M248.081,42.082c-45.05,0-81.575,23.585-81.575,52.679v239.64c0,29.094,36.525,52.679,81.575,52.679  s81.575-23.585,81.575-52.679V94.761C329.656,65.667,293.131,42.082,248.081,42.082z"
   id="path10" />
<circle
   style="fill:#EA4949;"
   cx="248.081"
   cy="116.581"
   r="43"
   id="circle12" />
<path
   style="fill:#F25F5F;"
   d="M274.486,90.175c-14.583-14.583-38.228-14.583-52.811,0c-14.584,14.583-14.584,38.228,0,52.812  C236.259,157.57,289.07,104.759,274.486,90.175z"
   id="path14" />
<circle
   style="fill:#000000;fill-opacity:1"
   cx="248.081"
   cy="317.081"
   r="43"
   id="circle16" />
<circle
   style="fill:#000000;fill-opacity:1"
   cx="248.081"
   cy="217.081"
   r="43"
   id="circle18" />
<path
   style="fill:#000000;fill-opacity:1"
   d="M274.486,191.175c-14.583-14.583-38.228-14.583-52.811,0c-14.584,14.583-14.584,38.228,0,52.812  C236.259,258.57,289.07,205.759,274.486,191.175z"
   id="path20" />
<path
   style="fill:#000000;fill-opacity:1"
   d="M274.486,291.175c-14.583-14.583-38.228-14.583-52.811,0c-14.584,14.583-14.584,38.228,0,52.812  C236.259,358.57,289.07,305.759,274.486,291.175z"
   id="path22" />
<g
   id="g24">
</g>
<g
   id="g26">
</g>
<g
   id="g28">
</g>
<g
   id="g30">
</g>
<g
   id="g32">
</g>
<g
   id="g34">
</g>
<g
   id="g36">
</g>
<g
   id="g38">
</g>
<g
   id="g40">
</g>
<g
   id="g42">
</g>
<g
   id="g44">
</g>
<g
   id="g46">
</g>
<g
   id="g48">
</g>
<g
   id="g50">
</g>
<g
   id="g52">
</g>
</svg>
